<?xml version="1.0" standalone="no"?>
<!DOCTYPE svg PUBLIC "-//W3C//DTD SVG 20010904//EN"
 "http://www.w3.org/TR/2001/REC-SVG-20010904/DTD/svg10.dtd">
<svg version="1.0" xmlns="http://www.w3.org/2000/svg"
 width="450.000000pt" height="375.000000pt" viewBox="0 0 450.000000 375.000000"
 preserveAspectRatio="xMidYMid meet">

<g transform="translate(0.000000,375.000000) scale(0.100000,-0.100000)"
fill="#000000" stroke="none">
<path d="M2621 3612 c-1 -25 -101 -224 -148 -295 -47 -70 -134 -164 -199 -214
l-34 -25 -92 17 c-136 25 -272 8 -394 -51 l-72 -34 -63 21 c-161 51 -407 195
-570 332 l-76 64 30 -76 c76 -196 110 -418 88 -586 -15 -118 -26 -149 -57
-166 -14 -7 -50 -39 -79 -71 -57 -61 -92 -137 -104 -220 -5 -43 -13 -53 -74
-108 -37 -33 -95 -78 -129 -101 -121 -82 -344 -182 -503 -224 -39 -10 -46 -14
-30 -20 106 -36 198 -75 259 -111 l72 -42 12 -62 c6 -34 24 -91 41 -125 27
-60 104 -150 144 -172 17 -9 17 -15 8 -49 -15 -55 -14 -116 5 -187 20 -79 41
-120 98 -188 25 -31 46 -66 46 -78 0 -79 -76 -358 -131 -478 -15 -35 -26 -63
-23 -63 2 0 28 20 58 43 131 108 402 250 531 280 104 25 192 37 266 37 59 0
71 -3 104 -30 88 -70 251 -129 360 -130 28 0 51 -9 77 -29 99 -74 219 -204
293 -313 l53 -80 12 58 c49 251 130 424 260 555 l65 66 90 6 c131 9 268 60
359 135 28 23 34 23 135 17 142 -9 325 -46 460 -94 61 -21 111 -38 111 -36 0
2 -16 23 -36 46 -174 208 -290 454 -315 665 l-11 94 50 55 c94 102 122 232 81
370 l-23 78 34 63 c76 142 240 341 373 451 45 37 91 76 102 86 11 11 39 33 62
50 24 17 42 32 40 33 -1 2 -36 -6 -77 -16 -215 -56 -360 -72 -532 -60 -450 32
-791 319 -969 818 -21 59 -38 101 -38 94z m68 -388 c68 -138 167 -269 281
-369 25 -22 44 -42 43 -46 -1 -3 3 -6 10 -6 24 -1 192 -103 170 -103 -13 0
-45 -9 -73 -19 l-51 -19 -44 47 c-69 73 -133 104 -230 109 -69 4 -90 1 -143
-21 l-61 -24 -27 41 c-53 81 -107 136 -178 184 l-72 48 39 45 c89 100 201 288
223 374 7 27 10 23 36 -55 15 -47 50 -130 77 -186z m-1548 17 c103 -87 227
-168 358 -233 64 -32 111 -58 105 -58 -29 0 -164 -202 -164 -245 0 -8 -4 -15
-10 -15 -5 0 -10 -7 -10 -16 0 -14 -6 -15 -37 -8 -21 5 -78 9 -128 8 l-90 -1
3 125 c4 145 -18 269 -72 415 -18 48 -32 87 -30 87 3 0 36 -27 75 -59z m1063
-277 c94 -24 193 -81 273 -158 l73 -68 -33 -47 c-54 -74 -54 -79 1 -28 172
158 423 113 534 -96 19 -35 23 -58 23 -140 0 -93 1 -97 14 -65 22 52 26 165 7
218 -10 30 -12 48 -5 55 5 5 56 10 112 10 95 0 107 -2 169 -33 85 -41 167
-128 199 -209 17 -44 23 -79 23 -148 1 -78 -3 -98 -27 -150 -15 -33 -36 -69
-45 -80 -11 -13 -7 -11 11 5 24 21 30 22 37 10 15 -24 23 -95 18 -167 -9 -162
-136 -307 -303 -350 l-50 -12 55 1 55 2 -4 -64 c-14 -261 -217 -500 -481 -566
-47 -12 -94 -15 -172 -12 -59 2 -110 7 -113 9 -2 3 5 33 16 68 10 35 18 65 16
67 -1 1 -18 -27 -37 -64 -46 -92 -171 -216 -262 -260 -96 -47 -151 -62 -254
-69 -231 -15 -458 105 -578 305 -35 59 -37 66 -25 90 22 45 22 48 -2 17 -89
-116 -206 -175 -347 -175 -213 0 -389 151 -424 364 -8 46 -8 81 0 118 8 43 8
49 -3 35 -11 -16 -15 -14 -45 20 -157 178 -123 477 70 618 48 35 135 75 163
75 6 0 21 -18 31 -41 27 -55 39 -59 20 -7 -69 196 30 426 223 519 58 28 82 34
159 37 115 5 196 -19 287 -86 l62 -45 -36 44 c-20 24 -56 59 -80 78 -24 18
-45 39 -47 45 -2 7 21 46 50 86 85 118 202 201 341 241 81 23 247 25 331 3z
m1861 -270 c-102 -69 -262 -213 -341 -305 l-58 -69 -13 61 c-17 86 -49 145
-107 204 l-51 50 130 1 c134 0 280 24 404 64 76 25 80 24 36 -6z m-3570 -786
c-13 -24 -28 -62 -35 -85 l-11 -43 -47 24 c-26 13 -65 29 -87 36 -22 7 -44 15
-49 18 -5 3 31 17 80 32 49 15 105 35 124 43 50 22 51 21 25 -25z m2939 -460
c37 -166 120 -333 246 -497 l68 -87 -79 28 c-112 39 -254 75 -332 83 -37 4
-67 9 -67 11 0 2 16 29 36 59 75 118 112 274 96 408 -8 63 -7 77 7 77 4 0 14
-37 25 -82z m-2020 -584 c14 -30 34 -68 46 -83 l20 -29 -68 -11 c-196 -33
-382 -121 -608 -288 -24 -18 -46 -33 -49 -33 -3 0 3 17 14 37 26 53 75 194 96
281 9 39 21 72 25 72 4 0 25 -6 46 -14 136 -48 315 -10 416 89 18 18 34 33 35
34 1 0 13 -24 27 -55z m1144 -153 c-82 -109 -140 -247 -175 -417 l-17 -82 -48
73 c-26 40 -79 106 -118 148 l-71 76 43 11 c110 30 263 139 332 238 26 38 27
39 65 29 l39 -11 -50 -65z"/>
<path d="M3658 3319 c-11 -6 -18 -22 -18 -39 0 -37 16 -48 22 -15 3 16 1 22
-6 18 -6 -3 -2 3 9 14 12 11 27 23 35 26 11 4 9 6 -5 6 -11 0 -28 -4 -37 -10z"/>
<path d="M3530 3151 c0 -6 4 -13 10 -16 6 -3 7 1 4 9 -7 18 -14 21 -14 7z"/>
<path d="M3344 2988 c3 -10 1 -20 -4 -23 -6 -4 -10 -15 -10 -27 0 -17 2 -18
15 -8 18 15 19 39 4 60 -9 13 -10 12 -5 -2z"/>
<path d="M3274 2925 c11 -8 27 -15 35 -15 11 0 10 4 -5 15 -10 8 -26 14 -34
14 -11 0 -10 -3 4 -14z"/>
</g>
</svg>
