<?xml version="1.0" encoding="UTF-8"?>
<!DOCTYPE svg PUBLIC "-//W3C//DTD SVG 1.1//EN" "http://www.w3.org/Graphics/SVG/1.1/DTD/svg11.dtd">
<svg xmlns="http://www.w3.org/2000/svg" version="1.1" width="237px" height="212px" style="shape-rendering:geometricPrecision; text-rendering:geometricPrecision; image-rendering:optimizeQuality; fill-rule:evenodd; clip-rule:evenodd" xmlns:xlink="http://www.w3.org/1999/xlink">
<g><path style="opacity:0.98" fill="#161616" d="M 27.5,-0.5 C 74.8333,-0.5 122.167,-0.5 169.5,-0.5C 169.833,0.833333 170.167,0.833333 170.5,-0.5C 172.833,-0.5 175.167,-0.5 177.5,-0.5C 178.833,0.833333 180.167,0.833333 181.5,-0.5C 182.5,-0.5 183.5,-0.5 184.5,-0.5C 190.987,0.328254 197.654,0.828254 204.5,1C 212.947,1.97405 220.114,5.47405 226,11.5C 227.122,13.4068 227.955,15.4068 228.5,17.5C 230.649,28.0456 231.816,38.7123 232,49.5C 232.667,66.5 232.667,83.5 232,100.5C 231.78,110.914 230.78,121.248 229,131.5C 225.245,145.258 216.412,153.425 202.5,156C 177.917,158.7 153.25,160.033 128.5,160C 107.608,171.608 86.9411,183.441 66.5,195.5C 62.827,197 59.4937,199 56.5,201.5C 52.3599,204.46 47.8599,206.794 43,208.5C 40.8125,207.941 40.1458,206.607 41,204.5C 56.0746,190.253 71.5746,176.586 87.5,163.5C 88.9616,162.542 90.2949,161.376 91.5,160C 69.1692,159.5 46.8358,159.333 24.5,159.5C 11.6492,155.177 4.48249,146.177 3,132.5C 1.55519,121.376 0.38852,110.376 -0.5,99.5C -0.5,82.5 -0.5,65.5 -0.5,48.5C -0.449228,31.8545 5.21744,17.3545 16.5,5C 19.9905,2.588 23.6571,0.754663 27.5,-0.5 Z"/></g>
<g><path style="opacity:1" fill="#fefefe" d="M 27.5,4.5 C 86.5038,4.51337 145.504,5.01337 204.5,6C 213.288,6.79899 219.788,10.9657 224,18.5C 225.717,25.3848 226.717,32.3848 227,39.5C 227.667,63.5 227.667,87.5 227,111.5C 228.226,126.17 223.393,138.336 212.5,148C 208.768,150.133 204.768,151.466 200.5,152C 175.893,154.383 151.226,155.716 126.5,156C 105.974,167.923 85.3072,179.256 64.5,190C 76.3333,179.5 88.1667,169 100,158.5C 100.49,157.207 100.657,155.873 100.5,154.5C 74.8312,154.667 49.1645,154.5 23.5,154C 17,151.5 12.5,147 10,140.5C 7.09432,128.685 5.42765,116.685 5,104.5C 4.08794,81.4706 4.42127,58.4706 6,35.5C 8.29713,21.5049 15.4638,11.1716 27.5,4.5 Z"/></g>
<g><path style="opacity:0.929" fill="#818181" d="M 24.5,159.5 C 46.8358,159.333 69.1692,159.5 91.5,160C 90.2949,161.376 88.9616,162.542 87.5,163.5C 69.0045,162.668 50.3378,162.168 31.5,162C 28.8958,161.61 26.5625,160.776 24.5,159.5 Z"/></g>
<g><path style="opacity:0.85" fill="#808080" d="M 228.5,17.5 C 230.959,19.052 232.459,21.3854 233,24.5C 234.212,31.9645 235.378,39.2978 236.5,46.5C 236.5,47.5 236.5,48.5 236.5,49.5C 235.167,50.1667 235.167,50.8333 236.5,51.5C 236.5,74.1667 236.5,96.8333 236.5,119.5C 236.064,130.806 232.564,141.14 226,150.5C 217.984,157.731 208.484,161.231 197.5,161C 176.066,162.403 154.733,163.403 133.5,164C 106.694,178.904 80.027,194.07 53.5,209.5C 53.1373,210.183 52.8039,210.85 52.5,211.5C 52.1667,211.5 51.8333,211.5 51.5,211.5C 51.3893,210.883 51.056,210.383 50.5,210C 52.306,207.174 54.6393,205.008 57.5,203.5C 61.1051,201.528 64.1051,198.861 66.5,195.5C 86.9411,183.441 107.608,171.608 128.5,160C 153.25,160.033 177.917,158.7 202.5,156C 216.412,153.425 225.245,145.258 229,131.5C 230.78,121.248 231.78,110.914 232,100.5C 232.667,83.5 232.667,66.5 232,49.5C 231.816,38.7123 230.649,28.0456 228.5,17.5 Z"/></g>
<g><path style="opacity:0.017" fill="#e0e0e0" d="M 66.5,195.5 C 64.1051,198.861 61.1051,201.528 57.5,203.5C 57.6716,202.508 57.3382,201.842 56.5,201.5C 59.4937,199 62.827,197 66.5,195.5 Z"/></g>
</svg>
