<?xml version="1.0" standalone="no"?>
<!DOCTYPE svg PUBLIC "-//W3C//DTD SVG 20010904//EN"
 "http://www.w3.org/TR/2001/REC-SVG-20010904/DTD/svg10.dtd">
<svg version="1.0" xmlns="http://www.w3.org/2000/svg"
 width="200.000000pt" height="200.000000pt" viewBox="0 0 200.000000 200.000000"
 preserveAspectRatio="xMidYMid meet">

<g transform="translate(0.000000,200.000000) scale(0.100000,-0.100000)"
fill="#000000" stroke="none">
<path d="M796 1684 c-205 -37 -367 -116 -492 -239 -95 -94 -138 -172 -155
-287 -43 -272 192 -529 573 -630 71 -19 110 -22 275 -23 l193 0 0 -30 c0 -25
-14 -85 -37 -157 -8 -27 24 -22 83 11 63 37 151 131 188 202 26 49 37 59 105
94 104 54 236 184 279 275 64 132 63 265 0 400 -41 86 -164 209 -268 267 -91
51 -225 97 -344 118 -108 18 -293 18 -400 -1z m374 -29 c125 -18 216 -47 320
-101 146 -75 235 -161 294 -284 29 -61 31 -72 31 -175 0 -104 -2 -114 -32
-175 -56 -114 -166 -217 -303 -285 -46 -23 -59 -36 -78 -76 -33 -69 -93 -142
-147 -179 -26 -18 -48 -30 -50 -28 -3 2 0 21 6 41 5 21 9 63 7 95 l-3 57 -40
-5 c-22 -3 -112 -4 -200 -4 -138 1 -173 5 -259 28 -260 68 -463 229 -521 411
-27 88 -18 212 21 295 59 123 148 209 294 284 195 101 428 137 660 101z"/>
</g>
</svg>
